<svg xmlns="http://www.w3.org/2000/svg"><symbol id="back-in-time" viewBox="0 0 512.336 512.336"><path d="M457.671 98.001h15.83c5.522 0 10-4.478 10-10s-4.478-10-10-10h-38c-5.522 0-10 4.478-10 10v38c0 5.522 4.478 10 10 10s10-4.478 10-10v-11.003c30.342 40.621 46.835 89.908 46.835 141.17 0 130.224-105.944 236.168-236.168 236.168S20 386.392 20 256.168 125.944 20 256.168 20c9.631 0 19.324.585 28.812 1.738 5.475.662 10.468-3.237 11.134-8.72.667-5.482-3.237-10.468-8.72-11.134A259.806 259.806 0 0 0 256.168 0C187.743 0 123.413 26.646 75.03 75.03 26.646 123.413 0 187.743 0 256.168s26.646 132.755 75.03 181.138c48.383 48.384 112.713 75.03 181.138 75.03s132.755-26.646 181.138-75.03c48.384-48.383 75.03-112.713 75.03-181.138 0-57.741-19.29-113.173-54.665-158.167z"/><path d="M108.472 151.013c-4.667-2.954-10.844-1.564-13.799 3.1-22.829 36.056-32.935 79.418-28.456 122.099 4.545 43.314 24.04 84.16 54.894 115.015 37.235 37.235 86.146 55.853 135.058 55.853s97.822-18.617 135.058-55.853c74.471-74.471 74.471-195.645 0-270.115-30.807-30.806-71.586-50.294-114.828-54.874-42.602-4.515-85.917 5.512-121.958 28.229-4.673 2.945-6.072 9.12-3.128 13.792 2.945 4.673 9.12 6.072 13.792 3.128 67.938-42.82 155.105-33.007 211.979 23.867 66.673 66.673 66.673 175.157 0 241.83-66.672 66.674-175.158 66.674-241.83 0-56.088-56.088-66.048-145.361-23.682-212.271 2.953-4.667 1.566-10.845-3.1-13.8z"/><path d="M386.169 266.33h12.332c5.522 0 10-4.478 10-10s-4.478-10-10-10h-12.332c-5.522 0-10 4.478-10 10s4.477 10 10 10zM103.835 256.006c0 5.522 4.478 10 10 10h12.332c5.522 0 10-4.478 10-10s-4.478-10-10-10h-12.332c-5.522 0-10 4.477-10 10zM266.33 126.167v-12.332c0-5.522-4.478-10-10-10s-10 4.478-10 10v12.332c0 5.522 4.478 10 10 10s10-4.478 10-10zM246.006 386.169v12.332c0 5.522 4.478 10 10 10s10-4.478 10-10v-12.332c0-5.522-4.478-10-10-10s-10 4.477-10 10zM206.044 191.901c-3.906-3.904-10.236-3.904-14.143 0-3.905 3.905-3.905 10.237 0 14.143l33.891 33.891a34.234 34.234 0 0 0-4.074 16.233c0 18.996 15.454 34.45 34.45 34.45s34.45-15.454 34.45-34.45a34.246 34.246 0 0 0-4.074-16.233l68.383-68.383c3.905-3.905 3.905-10.237 0-14.143-3.906-3.904-10.236-3.904-14.143 0l-68.383 68.383c-4.84-2.597-10.367-4.074-16.233-4.074s-11.393 1.478-16.233 4.074l-33.891-33.891zm64.574 64.267c0 7.968-6.482 14.45-14.45 14.45s-14.45-6.482-14.45-14.45 6.482-14.45 14.45-14.45 14.45 6.482 14.45 14.45zM135.248 135.248c1.87-1.86 2.939-4.44 2.939-7.07s-1.069-5.2-2.939-7.07a10.064 10.064 0 0 0-7.07-2.93c-2.63 0-5.21 1.07-7.07 2.93a10.08 10.08 0 0 0-2.93 7.07c0 2.64 1.07 5.21 2.93 7.07a10.08 10.08 0 0 0 7.07 2.93c2.639 0 5.21-1.071 7.07-2.93zM325.438 29.878a10.04 10.04 0 0 0 7.08-2.93 10.06 10.06 0 0 0 2.931-7.07c0-2.63-1.07-5.21-2.931-7.07a10.082 10.082 0 0 0-7.08-2.93c-2.63 0-5.21 1.07-7.069 2.93a10.077 10.077 0 0 0-2.931 7.07c0 2.64 1.07 5.21 2.931 7.07a10.033 10.033 0 0 0 7.069 2.93z"/></symbol><symbol id="calendar" viewBox="0 0 426.667 426.667"><path d="M106.667 181.333h42.667V224h-42.667zM192 181.333h42.667V224H192zM277.333 181.333H320V224h-42.667zM106.667 266.667h42.667v42.667h-42.667zM192 266.667h42.667v42.667H192zM277.333 266.667H320v42.667h-42.667z"/><path d="M362.667 53.333V10.667H320v42.667h-42.667V10.667h-42.667v42.667H192V10.667h-42.667v42.667h-42.667V10.667H64v42.667H0V416h426.667V53.333h-64zm21.333 320H42.667V96H64v21.333h42.667V96h42.667v21.333H192V96h42.667v21.333h42.667V96H320v21.333h42.667V96H384v277.333z"/></symbol><symbol id="clipboard" viewBox="0 0 415.998 415.998"><path d="M111.999 176h192v16h-192zM111.999 224h192v16h-192zM111.999 272h192v16h-192zM111.999 320h96v16h-96z"/><circle cx="208.239" cy="48" r="12"/><path d="M367.998 95.999c0-17.673-14.326-32-31.999-32h-44.424c-5.926-6.583-13.538-11.62-22.284-14.136-7.367-2.118-13.037-7.788-15.156-15.155C248.37 14.664 229.897 0 207.998 0c-21.898 0-40.37 14.663-46.134 34.706-2.122 7.376-7.806 13.039-15.182 15.165-8.736 2.518-16.341 7.55-22.262 14.128H79.999c-17.674 0-32 14.327-32 32v287.999c0 17.673 14.326 32 32 32h256c17.674 0 32-14.327 32-32l-.001-287.999zM128 95.741c.11-14.066 9.614-26.606 23.113-30.496 12.71-3.662 22.477-13.426 26.127-26.116C181.157 25.51 193.805 16 207.998 16c14.194 0 26.842 9.51 30.758 23.13 3.652 12.698 13.413 22.459 26.111 26.11 13.618 3.917 23.13 16.566 23.13 30.758v16H128V95.741zm207.999 304.257h-256c-8.823 0-16-7.178-16-16V95.999c0-8.822 7.177-16 16-16h34.742a47.85 47.85 0 0 0-2.74 15.617v32.383h191.998v-32c0-5.615-.992-10.991-2.764-16h34.764c8.822 0 15.999 7.178 15.999 16 0 45.743-.001 260.254.002 287.999-.001 8.822-7.178 16-16.001 16z"/></symbol><symbol id="earth" viewBox="0 0 512 512"><path d="M444.566 82.717c-15.828-17.24-34.291-32.574-55.249-45.353C335.64 4.633 274.565-5.918 216.831 3.069c-49.543 7.712-96.626 29.809-134.458 64.678-17.097 15.756-32.306 34.114-44.998 54.929a257.072 257.072 0 0 0-13.852 25.975c-53.844 116.391-12.903 257.631 99.163 325.968a258.667 258.667 0 0 0 8.26 4.827c36.27 20.322 75.583 30.847 114.763 32.357 3.292.126 6.582.197 9.87.197 41.373 0 82.283-10.036 118.99-29.142 39.963-20.802 74.941-52.36 100.057-93.549 15.424-25.294 25.908-52.235 31.763-79.692 17.197-80.654-5.705-165.78-61.823-226.9zM146.742 366.51l14.737 86.124a221.8 221.8 0 0 1-19.057-10.382c-49.752-30.339-84.713-78.235-98.44-134.868-11.733-48.405-6.74-98.233 13.896-142.757l67.258 38.492c18.472 10.572 27.747 32.371 22.552 53.011a22.296 22.296 0 0 0 5.449 20.859l1.921 2.031c16.979 17.954 17.303 46.382.735 64.718l-3.593 3.975c-4.634 5.13-6.624 11.98-5.458 18.797zm66.6-283.696l-80.454 45.28a12.64 12.64 0 0 1-9.281 1.242l-38.039-9.572c30.016-37.712 71.441-64.255 119.041-75.792a221.68 221.68 0 0 1 23.665-4.377c-.009.035-.011.071-.02.105L219.4 74.886a12.637 12.637 0 0 1-6.058 7.928zm94.051 385.196c-24.655 5.977-49.68 7.613-74.186 5.057l-5.295-32.311a12.638 12.638 0 0 1 7.348-13.596l16.549-7.337a57.103 57.103 0 0 1 70.665 20.409l9.758 14.537 8.26 2.39a220.82 220.82 0 0 1-33.099 10.851zm156.915-146.926a12.578 12.578 0 0 1-2.898-2.076l-12.154-11.632c-8.198-7.847-18.976-11.977-30.306-11.608-11.344.363-21.822 5.163-29.503 13.518-9.99 10.869-23.506 18.232-38.056 20.735l-43.211 7.435a45.724 45.724 0 0 1-7.766.665 45.445 45.445 0 0 1-29.412-10.802 45.46 45.46 0 0 1-16.115-35.005l.201-38.902c.048-9.102-2.939-18.121-8.409-25.395l-22.437-29.838a12.636 12.636 0 0 1-.641-14.25l35.448-57.201a12.635 12.635 0 0 1 10.251-5.971l84.007-3.26 32.661-35.694c.193-.211.406-.397.61-.593 40.713 30.305 69.338 73.444 81.443 123.385 9.471 39.083 8.046 79.093-3.713 116.489z"/></symbol><symbol id="flight" viewBox="0 0 426.667 426.667"><path d="M416 298.667V256L245.333 149.333V32c0-17.707-14.293-32-32-32s-32 14.293-32 32v117.333L10.667 256v42.667l170.667-53.333v117.333l-42.667 32v32l74.667-21.333L288 426.667v-32l-42.667-32V245.333L416 298.667z"/></symbol><symbol id="place" viewBox="0 0 512 512"><path d="M256 0C147.925 0 60 87.925 60 196c0 34.594 9.14 68.605 26.431 98.355a196.851 196.851 0 0 0 13.395 20.09L247.484 512h17.031l147.659-197.554a197.293 197.293 0 0 0 13.395-20.09C442.86 264.605 452 230.594 452 196 452 87.925 364.075 0 256 0zm0 261c-35.841 0-65-29.159-65-65s29.159-65 65-65 65 29.159 65 65-29.159 65-65 65z"/></symbol><symbol id="user" viewBox="0 0 438.529 438.529"><path d="M219.265 219.267c30.271 0 56.108-10.71 77.518-32.121 21.412-21.411 32.12-47.248 32.12-77.515 0-30.262-10.708-56.1-32.12-77.516C275.366 10.705 249.528 0 219.265 0S163.16 10.705 141.75 32.115c-21.414 21.416-32.121 47.253-32.121 77.516 0 30.267 10.707 56.104 32.121 77.515 21.416 21.411 47.251 32.121 77.515 32.121z"/><path d="M419.258 335.036c-.668-9.609-2.002-19.985-3.997-31.121-1.999-11.136-4.524-21.457-7.57-30.978-3.046-9.514-7.139-18.794-12.278-27.836-5.137-9.041-11.037-16.748-17.703-23.127-6.666-6.377-14.801-11.465-24.406-15.271-9.617-3.805-20.229-5.711-31.84-5.711-1.711 0-5.709 2.046-11.991 6.139a2716.072 2716.072 0 0 1-21.266 13.708c-7.898 5.037-18.182 9.609-30.834 13.695-12.658 4.093-25.361 6.14-38.118 6.14-12.752 0-25.456-2.047-38.112-6.14-12.655-4.086-22.936-8.658-30.835-13.695a2784.143 2784.143 0 0 1-21.267-13.708c-6.283-4.093-10.278-6.139-11.991-6.139-11.61 0-22.222 1.906-31.833 5.711-9.613 3.806-17.749 8.898-24.412 15.271-6.661 6.379-12.562 14.086-17.699 23.127-5.137 9.042-9.229 18.326-12.275 27.836-3.045 9.521-5.568 19.842-7.566 30.978-2 11.136-3.332 21.505-3.999 31.121a427.742 427.742 0 0 0-.998 29.554c0 22.836 6.949 40.875 20.842 54.104 13.896 13.224 32.36 19.835 55.39 19.835h249.533c23.028 0 41.49-6.611 55.388-19.835 13.901-13.229 20.845-31.265 20.845-54.104-.002-10.088-.334-19.938-1.008-29.554z"/></symbol><symbol id="wallet" viewBox="0 -18 482.9 482"><path d="M472.8 222.027h-26.3v-77a10.027 10.027 0 0 0-10-10h-40.7v-65.5c-.023-19.324-15.679-34.98-35-35H229.3L204.2 9.324a29.952 29.952 0 0 0-23.384-8.8c-8.707.617-16.71 5-21.918 12.003l-16.296 22H60c-33.125.024-59.973 26.871-60 60v291c.027 33.125 26.875 59.973 60 60h377.102c5.515-.02 9.984-4.484 10-10v-80h25.796c5.52-.02 9.985-4.484 10-10v-113.5a10.11 10.11 0 0 0-10.097-10zm-112-167.5a14.964 14.964 0 0 1 10.614 4.387 14.99 14.99 0 0 1 4.387 10.613v65.5h-46.403l-80.097-80.5zm-185.902-30a10.008 10.008 0 0 1 7.301-4c2.899-.21 5.746.844 7.801 2.899l111.102 111.601H92.898zM20 94.527c-.008-22.097 17.906-40.007 40-40h67.8l-59.8 80.5h-8c-22.094.004-40.008-17.906-40-40zm407 331H60c-22.094.004-40.008-17.906-40-40v-245.8a59.723 59.723 0 0 0 40 15.3h263.102c1.64.399 3.355.399 5 0h98.5v67H370c-27.61.008-49.988 22.387-50 50v33.598c.012 27.61 22.39 49.992 50 50h57.102v69.902zm35.8-89.902h-92.902c-16.546-.047-29.949-13.45-30-30v-33.598c.051-16.55 13.454-29.953 30-30h63.5a9.906 9.906 0 0 0 6.204 0H462.8zm0 0"/><path d="M379.898 262.027a10.027 10.027 0 0 0-10 10v33.598c0 5.523 4.48 10 10 10 5.524 0 10-4.477 10-10v-33.598a9.944 9.944 0 0 0-2.918-7.082 9.943 9.943 0 0 0-7.082-2.918zm0 0"/></symbol></svg>